<svg xmlns="http://www.w3.org/2000/svg" enable-background="new 0 0 24 24" viewBox="0 0 24 24"><polygon fill="#343434" points="11.997 0 11.837 .547 11.837 16.416 11.997 16.577 19.364 12.223 11.997 0"/><polygon fill="#8C8C8C" points="11.998 0 4.631 12.223 11.998 16.577 11.998 8.874 11.998 0"/><polygon fill="#3C3C3B" points="11.997 17.972 11.907 18.082 11.907 23.735 11.997 24 19.369 13.62 11.997 17.972"/><polygon fill="#8C8C8C" points="11.998 24 11.998 17.972 4.631 13.62 11.998 24"/><polygon fill="#141414" points="11.997 16.577 19.364 12.223 11.997 8.874 11.997 16.577"/><polygon fill="#393939" points="4.631 12.223 11.997 16.577 11.997 8.874 4.631 12.223"/><path fill="#2D2D2D" d="M11.998,0v8.874L12,8.876V0.004L11.998,0L11.998,0z M11.997,0l0,0.001L11.997,0L11.997,0L11.997,0z"/><path fill="#7A7A7A" d="M4.631,12.223L4.631,12.223l7.367,4.354v-0.001l0,0L4.631,12.223L4.631,12.223z M11.998,0L11.998,0l-0.001,0.001L4.631,12.223l7.366-3.348l0,0v0V0L11.998,0L11.998,0z"/><path fill="#343433" d="M11.997,23.999l0,0.001L11.997,23.999L11.997,23.999z M12,17.97l-0.003,0.002h0v6.027L12,23.996V17.97L12,17.97z"/><polygon fill="#7A7A7A" points="4.631 13.62 11.997 23.999 11.998 24 11.998 23.999 11.998 17.972 4.631 13.62"/><polygon fill="#111" points="11.997 8.874 11.997 16.577 11.998 16.577 12 16.575 12 8.876 11.998 8.875 11.997 8.874"/><polygon fill="#323232" points="11.997 8.874 4.631 12.223 11.997 16.577 11.997 8.874"/></svg>